<?xml version="1.0" encoding="UTF-8" standalone="no"?>
<!DOCTYPE svg PUBLIC "-//W3C//DTD SVG 1.1//EN" "http://www.w3.org/Graphics/SVG/1.1/DTD/svg11.dtd">
<svg xmlns="http://www.w3.org/2000/svg" version="1.1" viewBox="0.00 0.00 500.00 500.00">
<path fill="#0658f6" d="
  M 93.01 244.97
  L 93.01 263.50
  Q 93.01 264.00 92.50 264.00
  L 82.56 264.00
  Q 82.12 264.00 82.12 263.56
  L 82.01 212.22
  Q 82.01 211.73 82.50 211.73
  Q 95.08 211.66 107.60 211.87
  Q 113.55 211.97 116.60 213.42
  C 129.74 219.67 129.00 239.01 114.74 243.40
  C 109.30 245.08 100.22 244.23 93.69 244.28
  Q 93.01 244.29 93.01 244.97
  Z
  M 93.00 221.58
  L 93.00 234.74
  A 0.54 0.54 0.0 0 0 93.54 235.28
  L 107.46 235.28
  A 7.52 6.97 -0.0 0 0 114.98 228.31
  L 114.98 228.01
  A 7.52 6.97 0.0 0 0 107.46 221.04
  L 93.54 221.04
  A 0.54 0.54 0.0 0 0 93.00 221.58
  Z"
/>
<path fill="#0658f6" d="
  M 357.97 233.75
  L 351.17 233.76
  Q 350.58 233.76 350.59 233.17
  L 350.61 225.63
  Q 350.61 225.00 351.24 225.00
  L 358.04 225.00
  A 0.54 0.53 -90.0 0 0 358.57 224.46
  L 358.54 215.70
  Q 358.54 215.18 359.05 215.06
  L 368.24 212.91
  A 0.61 0.60 83.2 0 1 368.98 213.50
  L 368.92 224.65
  A 0.34 0.34 0.0 0 0 369.26 225.00
  L 379.37 224.99
  Q 380.00 224.99 380.00 225.62
  L 379.99 233.13
  Q 379.99 233.75 379.37 233.75
  L 369.48 233.77
  Q 368.97 233.77 368.98 234.27
  L 369.00 253.02
  A 1.50 1.47 26.0 0 0 369.33 253.95
  C 371.74 256.99 376.27 255.89 379.25 255.16
  Q 379.75 255.04 379.75 255.55
  L 379.69 262.78
  Q 379.69 263.36 379.13 263.52
  C 370.71 265.90 358.86 265.13 358.74 253.62
  Q 358.64 243.95 358.48 234.26
  Q 358.47 233.75 357.97 233.75
  Z"
/>
<path fill="#0658f6" d="
  M 141.08 228.51
  Q 146.59 222.71 154.51 224.71
  A 0.80 0.79 7.0 0 1 155.12 225.48
  L 155.11 233.50
  Q 155.11 234.08 154.56 233.89
  Q 145.85 230.88 140.80 238.23
  A 1.65 1.59 -28.5 0 0 140.51 239.15
  L 140.50 263.25
  Q 140.50 264.00 139.75 264.00
  L 130.85 264.00
  Q 130.20 264.00 130.20 263.35
  L 130.20 225.65
  A 0.65 0.65 0.0 0 1 130.85 225.00
  L 139.75 225.00
  Q 140.50 225.00 140.50 225.75
  L 140.51 228.28
  Q 140.51 229.11 141.08 228.51
  Z"
/>
<path fill="#0658f6" d="
  M 198.5589 244.7881
  A 20.83 20.23 0.6 0 1 177.5182 264.7989
  A 20.83 20.23 0.6 0 1 156.9011 244.3519
  A 20.83 20.23 0.6 0 1 177.9418 224.3411
  A 20.83 20.23 0.6 0 1 198.5589 244.7881
  Z
  M 177.6707 255.8199
  A 11.27 10.72 90.2 0 0 188.4299 244.5874
  A 11.27 10.72 90.2 0 0 177.7493 233.2801
  A 11.27 10.72 90.2 0 0 166.9901 244.5126
  A 11.27 10.72 90.2 0 0 177.6707 255.8199
  Z"
/>
<path fill="#0658f6" d="
  M 258.85 227.42
  Q 270.38 220.24 279.90 229.55
  Q 280.23 229.88 280.57 229.55
  C 290.42 220.03 307.35 224.07 307.91 239.00
  Q 308.13 244.89 307.89 263.56
  Q 307.89 264.00 307.45 264.00
  L 298.05 264.00
  Q 297.56 264.00 297.56 263.51
  Q 297.59 253.03 297.50 242.63
  Q 297.47 238.68 296.70 237.02
  C 294.22 231.64 286.66 232.45 283.31 236.61
  Q 283.01 236.99 283.01 237.48
  L 283.01 263.50
  Q 283.01 264.00 282.50 264.00
  L 273.30 264.00
  Q 272.82 264.00 272.82 263.52
  Q 272.80 253.37 272.79 243.29
  Q 272.79 238.70 271.44 236.47
  C 268.95 232.35 261.76 231.90 258.56 236.45
  A 1.67 1.65 -27.9 0 0 258.26 237.40
  L 258.25 263.50
  Q 258.25 264.00 257.75 264.00
  L 248.50 264.00
  Q 248.00 264.00 248.00 263.50
  L 248.00 225.50
  Q 248.00 225.00 248.50 225.00
  L 257.76 225.00
  Q 258.26 225.00 258.26 225.51
  L 258.23 227.08
  Q 258.22 227.81 258.85 227.42
  Z"
/>
<path fill="#0658f6" d="
  M 336.66 261.80
  C 335.52 262.33 334.45 263.02 333.41 263.40
  C 324.91 266.48 312.50 264.10 311.88 253.12
  C 311.14 240.07 328.43 239.89 336.60 242.11
  Q 337.05 242.23 337.13 241.78
  C 339.34 229.12 323.57 233.00 317.86 235.98
  A 0.58 0.57 -27.0 0 1 317.08 235.73
  L 313.84 229.15
  Q 313.57 228.59 314.13 228.32
  C 323.28 223.89 341.02 220.92 346.05 232.29
  Q 347.57 235.75 347.51 245.82
  Q 347.45 254.67 347.50 263.48
  Q 347.50 264.01 346.98 264.01
  L 337.85 263.99
  A 0.61 0.61 0.0 0 1 337.24 263.34
  L 337.31 262.24
  Q 337.35 261.48 336.66 261.80
  Z
  M 326.59 257.03
  C 329.50 257.52 334.57 257.19 337.01 254.91
  A 0.92 0.91 68.1 0 0 337.29 254.25
  L 337.27 249.72
  Q 337.27 249.14 336.73 248.94
  C 333.24 247.59 324.64 246.39 322.35 250.49
  C 320.41 253.96 323.23 256.47 326.59 257.03
  Z"
/>
<path fill="#0658f6" d="
  M 391.61 248.54
  C 394.10 256.84 404.17 258.01 410.48 253.29
  Q 410.86 253.01 411.22 253.32
  L 417.04 258.50
  A 0.79 0.78 -42.4 0 1 416.98 259.72
  C 405.40 268.32 387.88 266.11 382.09 251.43
  C 377.37 239.46 386.08 225.78 399.00 224.51
  C 412.56 223.19 421.30 234.93 420.14 247.61
  Q 420.10 248.01 419.71 248.01
  L 392.00 248.01
  Q 391.45 248.01 391.61 248.54
  Z
  M 391.59 239.21
  A 1.02 1.02 0.0 0 0 392.48 240.72
  L 409.51 240.73
  Q 410.16 240.73 409.96 240.11
  C 406.82 230.62 396.29 230.74 391.59 239.21
  Z"
/>
<path fill="#0658f6" d="
  M 213.46 227.61
  Q 223.30 222.29 232.03 226.32
  C 248.44 233.90 247.31 257.82 230.02 263.50
  Q 222.06 266.12 213.56 261.92
  Q 213.00 261.64 213.00 262.28
  L 213.00 275.47
  Q 213.00 275.98 213.52 275.98
  Q 313.01 275.96 412.50 275.92
  Q 412.75 275.92 412.89 276.05
  Q 413.13 276.30 412.75 276.32
  L 97.44 289.00
  Q 96.85 289.02 96.72 288.45
  L 94.11 276.47
  Q 94.00 275.97 94.51 275.97
  L 202.27 275.97
  A 0.49 0.49 0.0 0 0 202.76 275.48
  L 202.77 225.74
  Q 202.77 225.00 203.51 225.00
  L 212.50 225.00
  A 0.50 0.50 0.0 0 1 213.00 225.50
  L 212.97 227.32
  Q 212.96 227.88 213.46 227.61
  Z
  M 215.68 254.08
  C 220.89 256.68 226.41 256.51 230.55 252.33
  C 234.64 248.21 234.44 240.51 230.26 236.59
  C 225.49 232.12 218.39 232.48 213.39 236.63
  A 1.08 1.07 69.8 0 0 213.00 237.48
  Q 213.01 244.06 212.98 250.57
  C 212.97 252.90 213.85 253.17 215.68 254.08
  Z"
/>
</svg>
